<?xml version="1.0" encoding="UTF-8" standalone="no"?>
<!-- Created with Inkscape (http://www.inkscape.org/) -->

<svg
   width="432"
   height="432"
   viewBox="0 0 114.3 114.3"
   version="1.1"
   id="svg1"
   xml:space="preserve"
   inkscape:export-filename="access_logo_fg_mono.png"
   inkscape:export-xdpi="96"
   inkscape:export-ydpi="96"
   inkscape:version="1.3 (0e150ed6c4, 2023-07-21)"
   sodipodi:docname="access-logo-inkscape.svg"
   xmlns:inkscape="http://www.inkscape.org/namespaces/inkscape"
   xmlns:sodipodi="http://sodipodi.sourceforge.net/DTD/sodipodi-0.dtd"
   xmlns="http://www.w3.org/2000/svg"
   xmlns:svg="http://www.w3.org/2000/svg"
   xmlns:rdf="http://www.w3.org/1999/02/22-rdf-syntax-ns#"
   xmlns:cc="http://creativecommons.org/ns#"
   xmlns:dc="http://purl.org/dc/elements/1.1/"><title
     id="title1">Access Logo</title><sodipodi:namedview
     id="namedview1"
     pagecolor="#000000"
     bordercolor="#000000"
     borderopacity="0.25"
     inkscape:showpageshadow="2"
     inkscape:pageopacity="0.0"
     inkscape:pagecheckerboard="true"
     inkscape:deskcolor="#d1d1d1"
     inkscape:document-units="px"
     inkscape:lockguides="true"
     inkscape:zoom="1.0825634"
     inkscape:cx="203.68322"
     inkscape:cy="216.61549"
     inkscape:window-width="1366"
     inkscape:window-height="715"
     inkscape:window-x="-8"
     inkscape:window-y="-8"
     inkscape:window-maximized="1"
     inkscape:current-layer="layer1"
     inkscape:export-bgcolor="#7145d600" /><defs
     id="defs1" /><g
     inkscape:label="Layer 1"
     inkscape:groupmode="layer"
     id="layer1"
     style="display:inline"
     sodipodi:insensitive="true"><g
       style="display:inline;fill:#ffffff;stroke:#ffffff;stroke-width:0.12"
       id="g1"
       transform="matrix(5.6754649,0,0,5.6754649,-10.900755,-11.010402)"><g
         id="SVGRepo_bgCarrier"
         stroke-width="0" /><g
         id="SVGRepo_tracerCarrier"
         stroke-linecap="round"
         stroke-linejoin="round" /><g
         id="SVGRepo_iconCarrier"><path
           d="m 12,8 a 2,2 0 0 0 -2,2 2,2 0 0 0 1,1.72 V 15 a 1,1 0 0 0 2,0 V 11.72 A 2,2 0 0 0 14,10 2,2 0 0 0 12,8 Z M 12,2 A 10,10 0 1 0 22,12 10,10 0 0 0 12,2 Z m 0,18 a 8,8 0 1 1 8,-8 8,8 0 0 1 -8,8 z"
           id="path1"
           style="display:inline" /></g></g></g><metadata
     id="metadata1"><rdf:RDF><cc:Work
         rdf:about=""><dc:title>Access Logo</dc:title></cc:Work></rdf:RDF></metadata></svg>
